<svg width="32" height="32" viewBox="0 0 32 32" fill="none" xmlns="http://www.w3.org/2000/svg">
<path d="M1.52588e-05 8.68066H9.3874V13.7817H2.68212C1.19739 13.7817 1.52588e-05 12.6224 1.52588e-05 11.1848V8.68066Z" fill="#543C52"/>
<path d="M6.7053 24.0068H2.21333e-05V18.9058H9.38741V21.4099C9.38741 22.8475 8.19003 24.0068 6.7053 24.0068Z" fill="#543C52"/>
<path d="M9.53109 13.5029C9.48319 13.5029 9.4353 13.5029 9.38741 13.5029V18.6272C9.4353 18.6272 9.48319 18.6272 9.53109 18.6272C13.8177 18.6272 17.29 22.0124 17.29 26.1396C17.29 30.2668 17.29 26.2324 17.29 26.2787H22.5824C22.5824 26.2324 22.5824 26.186 22.5824 26.1396C22.5824 19.1836 16.7393 13.5029 9.53109 13.5029Z" fill="#543C52"/>
<path d="M12.309 3C13.9374 3 15.2306 4.27526 15.2306 5.82876C15.2306 7.40545 13.9135 8.65753 12.309 8.65753H9.38741V5.82876C9.38741 4.25208 10.7045 3 12.309 3Z" fill="#543C52"/>
<path d="M17.4337 10.7209H17.5535C19.0142 10.7209 20.7624 10.5354 22.5345 10.234C24.2827 9.93255 26.0069 9.51519 27.3719 9.05146C27.4198 9.05146 27.4437 9.02827 27.4916 9.00509C27.324 7.82257 26.7253 6.7328 25.7914 5.92127C24.8574 5.13293 23.66 4.69238 22.4148 4.69238C19.9003 4.69238 17.8169 6.45456 17.3858 8.75003C17.3379 9.02827 17.314 9.3297 17.314 9.63112C17.314 9.93255 17.314 9.77024 17.314 9.81662C17.314 10.118 17.3619 10.4195 17.4337 10.6977V10.7209Z" fill="#543C52"/>
<path d="M31.2274 8.14741C31.1077 7.49819 29.5751 7.15039 27.324 7.15039C27.4677 7.42863 27.5874 7.70687 27.7072 8.00829C27.7072 8.05467 27.7311 8.10104 27.7551 8.14741C28.8087 8.14741 29.5032 8.26335 29.8864 8.37928C29.5511 8.61115 28.9524 8.93576 27.9466 9.30674L27.6114 9.42268L27.4916 9.46905C26.1506 9.93278 24.5222 10.327 22.8219 10.6284C22.75 10.6284 22.6543 10.6516 22.5824 10.6748C22.4866 10.6748 22.3908 10.6979 22.295 10.7211C20.6427 10.9994 19.0142 11.1385 17.6253 11.1617H17.5295H17.0745C16.0208 11.1617 15.3263 11.0457 14.9432 10.9298C15.2785 10.6979 15.8771 10.3733 16.8829 10.0023C16.8829 9.95597 16.8829 9.90959 16.8829 9.86322C16.8829 9.79366 16.8829 9.7241 16.8829 9.65454C16.8829 9.42268 16.8829 9.16762 16.9308 8.93576C14.7995 9.67773 13.4824 10.4893 13.6021 11.1617C13.7219 11.8573 15.494 12.2051 18.0085 12.1355C18.1042 12.1355 18.1761 12.1355 18.2719 12.1355C19.4692 12.0891 20.8103 11.95 22.1753 11.7413C22.2711 11.7413 22.3669 11.7181 22.4627 11.695C22.5585 11.695 22.6543 11.6718 22.75 11.6486C22.8458 11.6486 22.9416 11.6254 23.0374 11.6022C23.1332 11.6022 23.229 11.5558 23.3248 11.5558C24.6898 11.3008 26.0069 10.9762 27.1324 10.6284C27.2043 10.6052 27.3001 10.582 27.3719 10.5588C29.7666 9.79366 31.2993 8.88938 31.1795 8.1706L31.2274 8.14741Z" fill="#543C52"/>
<path d="M22.8458 12.0424C21.2653 12.3207 19.6848 12.483 18.2719 12.5293C19.2298 13.8046 20.7624 14.5698 22.3908 14.5698C24.7137 14.5698 26.6774 13.0626 27.3001 10.999C25.959 11.4164 24.4264 11.7642 22.8458 12.0424Z" fill="#543C52"/>
</svg>
