<svg width="145" height="18" viewBox="0 0 145 18" fill="none" xmlns="http://www.w3.org/2000/svg">
<g clip-path="url(#clip0_10425_4)">
<path d="M27.5724 1.382H31.8719L33.8911 11.7977L35.6666 4.23032C36.1715 2.0056 37.2681 1.04492 38.9566 1.04492C40.645 1.04492 41.7243 1.98874 42.2465 4.23032L44.022 11.7977L46.0412 1.382H50.3407L47.5382 14.1236C47.1378 15.9438 45.8845 16.9719 44.1787 16.9719C42.4728 16.9719 41.2717 15.9775 40.8713 14.309L38.9392 6.08425L37.007 14.309C36.6066 15.9775 35.2315 16.9719 33.6997 16.9719C32.1679 16.9719 30.7405 15.9607 30.3401 14.1236L27.5376 1.382H27.5724Z" fill="#543C52" style="fill:#543C52;fill:color(display-p3 0.3294 0.2353 0.3216);fill-opacity:1;"/>
<path d="M51.2632 8.99997C51.2632 4.46626 54.7968 1.06177 59.5489 1.06177C64.301 1.06177 67.8346 4.46626 67.8346 8.99997C67.8346 13.5337 64.301 16.9382 59.5489 16.9382C54.7968 16.9382 51.2632 13.5337 51.2632 8.99997ZM63.4307 8.99997C63.4307 6.74154 61.7596 5.00559 59.5663 5.00559C57.373 5.00559 55.702 6.74154 55.702 8.99997C55.702 11.2584 57.373 12.9944 59.5663 12.9944C61.7596 12.9944 63.4307 11.2584 63.4307 8.99997Z" fill="#543C52" style="fill:#543C52;fill:color(display-p3 0.3294 0.2353 0.3216);fill-opacity:1;"/>
<path d="M70.4111 16.6011V1.38202H77.0084C80.7335 1.38202 83.5708 3.06741 83.5708 6.4382C83.5708 9.80898 82.4045 10.0955 80.5594 10.6517C81.3427 11.1404 81.8649 12.0337 82.5612 13.3989L84.1626 16.6011H79.4802L78.018 13.736C77.4784 12.691 76.8691 12.3202 75.4766 12.3202H74.6932V16.6011H70.4111ZM74.7107 5.20786V8.61236C74.6932 8.61236 76.991 8.61236 76.991 8.61236C78.2443 8.61236 79.132 7.9382 79.132 6.85955C79.132 5.7809 78.2443 5.20786 77.0432 5.20786H74.7107Z" fill="#543C52" style="fill:#543C52;fill:color(display-p3 0.3294 0.2353 0.3216);fill-opacity:1;"/>
<path d="M91.2646 12.7584H98.21V16.5843H90.6902C88.0443 16.5843 86.9651 15.236 86.9651 13.0955V1.38202H91.2646V12.7584Z" fill="#543C52" style="fill:#543C52;fill:color(display-p3 0.3294 0.2353 0.3216);fill-opacity:1;"/>
<path d="M106.53 16.6011H100.316V1.38202H106.53C111.683 1.38202 115.095 4.43258 115.095 9.05056C115.095 13.6685 111.561 16.6011 106.53 16.6011ZM106.53 5.20786H104.616V12.8764H106.53C109.037 12.8764 110.673 11.3427 110.673 9.05056C110.673 6.75842 109.037 5.22472 106.53 5.22472V5.20786Z" fill="#543C52" style="fill:#543C52;fill:color(display-p3 0.3294 0.2353 0.3216);fill-opacity:1;"/>
<path d="M128.707 1.38202V16.6011H124.407V1.38202H128.707Z" fill="#543C52" style="fill:#543C52;fill:color(display-p3 0.3294 0.2353 0.3216);fill-opacity:1;"/>
<path d="M144.129 5.20786H139.691V16.5843H135.391V5.20786H130.952V1.38202H144.147V5.20786H144.129Z" fill="#543C52" style="fill:#543C52;fill:color(display-p3 0.3294 0.2353 0.3216);fill-opacity:1;"/>
<path d="M0.870117 4.66852H7.69365V8.37638H2.8197C1.74047 8.37638 0.870117 7.53369 0.870117 6.48874V4.66852Z" fill="#543C52" style="fill:#543C52;fill:color(display-p3 0.3294 0.2353 0.3216);fill-opacity:1;"/>
<path d="M5.74427 15.809H0.870318L0.870318 12.1011H7.69385L7.69385 13.9213C7.69385 14.9663 6.8235 15.809 5.74427 15.809Z" fill="#543C52" style="fill:#543C52;fill:color(display-p3 0.3294 0.2353 0.3216);fill-opacity:1;"/>
<path d="M7.79829 8.17413C7.76348 8.17413 7.72866 8.17413 7.69385 8.17413V11.8989C7.72866 11.8989 7.76348 11.8989 7.79829 11.8989C10.9141 11.8989 13.4381 14.3595 13.4381 17.3595C13.4381 20.3595 13.4381 17.4269 13.4381 17.4606H17.2851C17.2851 17.4269 17.2851 17.3932 17.2851 17.3595C17.2851 12.3033 13.0378 8.17413 7.79829 8.17413Z" fill="#543C52" style="fill:#543C52;fill:color(display-p3 0.3294 0.2353 0.3216);fill-opacity:1;"/>
<path d="M9.8175 0.539307C11.0012 0.539307 11.9411 1.46627 11.9411 2.59549C11.9411 3.74155 10.9838 4.65167 9.8175 4.65167H7.69385V2.59549C7.69385 1.44942 8.65123 0.539307 9.8175 0.539307Z" fill="#543C52" style="fill:#543C52;fill:color(display-p3 0.3294 0.2353 0.3216);fill-opacity:1;"/>
<path d="M13.5426 6.15168H13.6296C14.6915 6.15168 15.9622 6.01684 17.2503 5.79774C18.521 5.57864 19.7743 5.27527 20.7665 4.93819C20.8013 4.93819 20.8187 4.92134 20.8535 4.90448C20.7317 4.04493 20.2965 3.2528 19.6176 2.66291C18.9388 2.08988 18.0684 1.76965 17.1632 1.76965C15.3355 1.76965 13.8211 3.05055 13.5078 4.71909C13.473 4.92134 13.4556 5.14044 13.4556 5.35954C13.4556 5.57864 13.4556 5.46066 13.4556 5.49437C13.4556 5.71347 13.4904 5.93257 13.5426 6.13482V6.15168Z" fill="#543C52" style="fill:#543C52;fill:color(display-p3 0.3294 0.2353 0.3216);fill-opacity:1;"/>
<path d="M23.5689 4.28087C23.4819 3.80896 22.3679 3.55615 20.7316 3.55615C20.8361 3.7584 20.9231 3.96065 21.0101 4.17975C21.0101 4.21346 21.0275 4.24716 21.0449 4.28087C21.8108 4.28087 22.3156 4.36514 22.5942 4.44941C22.3505 4.61795 21.9153 4.85391 21.1842 5.12357L20.9405 5.20784L20.8535 5.24155C19.8787 5.57862 18.695 5.86514 17.4591 6.08424C17.4069 6.08424 17.3373 6.1011 17.285 6.11795C17.2154 6.11795 17.1458 6.1348 17.0762 6.15166C15.8751 6.35391 14.6914 6.45503 13.6818 6.47188H13.6122H13.2814C12.5155 6.47188 12.0107 6.38761 11.7322 6.30334C11.9759 6.1348 12.4111 5.89885 13.1422 5.62919C13.1422 5.59548 13.1422 5.56177 13.1422 5.52806C13.1422 5.4775 13.1422 5.42694 13.1422 5.37638C13.1422 5.20784 13.1422 5.02244 13.177 4.8539C11.6278 5.39323 10.6704 5.98312 10.7574 6.47188C10.8445 6.9775 12.1326 7.23031 13.9603 7.17975C14.0299 7.17975 14.0822 7.17975 14.1518 7.17975C15.0221 7.14604 15.9969 7.04492 16.9891 6.89323C17.0587 6.89323 17.1284 6.87638 17.198 6.85952C17.2676 6.85952 17.3373 6.84267 17.4069 6.82582C17.4765 6.82582 17.5461 6.80896 17.6158 6.79211C17.6854 6.79211 17.755 6.7584 17.8247 6.7584C18.8168 6.57301 19.7742 6.33705 20.5924 6.08424C20.6446 6.06739 20.7142 6.05053 20.7664 6.03368C22.5071 5.4775 23.6212 4.8202 23.5341 4.29773L23.5689 4.28087Z" fill="#543C52" style="fill:#543C52;fill:color(display-p3 0.3294 0.2353 0.3216);fill-opacity:1;"/>
<path d="M17.4766 7.11237C16.3277 7.31462 15.1789 7.43259 14.1519 7.4663C14.8481 8.39327 15.9622 8.94945 17.1459 8.94945C18.8343 8.94945 20.2617 7.85394 20.7143 6.35394C19.7395 6.65731 18.6254 6.91012 17.4766 7.11237Z" fill="#543C52" style="fill:#543C52;fill:color(display-p3 0.3294 0.2353 0.3216);fill-opacity:1;"/>
</g>
<defs>
<clipPath id="clip0_10425_4">
<rect width="145" height="18" fill="white" style="fill:white;fill-opacity:1;"/>
</clipPath>
</defs>
</svg>
